<svg width="16" height="20" viewBox="0 0 16 20" fill="none" xmlns="http://www.w3.org/2000/svg">
<path d="M8.00016 -0.000488281C4.00619 -0.000488281 0.756897 3.24881 0.756897 7.24271C0.756897 12.1993 7.23886 19.4758 7.51486 19.7831C7.77406 20.0718 8.22666 20.0713 8.48546 19.7831C8.76136 19.4758 15.2434 12.1993 15.2434 7.24271C15.2433 3.24881 11.9941 -0.000488281 8.00016 -0.000488281ZM8.00016 10.887C5.99068 10.887 4.35592 9.25221 4.35592 7.24271C4.35592 5.23326 5.99072 3.59849 8.00016 3.59849C10.0096 3.59849 11.6444 5.2333 11.6444 7.24275C11.6444 9.25221 10.0096 10.887 8.00016 10.887Z" fill="black"/>
</svg>
