<svg width="33" height="31" viewBox="0 0 33 31" fill="none" xmlns="http://www.w3.org/2000/svg">
<path d="M15.7929 4.09534V4.09638C15.776 4.12546 12.2955 10.1293 7.95067 17.4596C3.59532 24.8078 0 30.6907 0 30.6907L12.3315 30.6366L12.3323 30.6365L12.3297 30.6461C18.3172 30.5301 23.7182 26.5935 25.3119 20.6454C25.8102 18.7861 25.8853 16.9144 25.5964 15.1256C24.8043 9.85837 20.9149 5.5746 15.7929 4.09534Z" fill="black"/>
<path d="M22.6077 0.309326V0.31037C22.5908 0.339449 19.1102 6.3433 14.7654 13.6736C10.4101 21.0218 6.81476 26.9047 6.81476 26.9047L19.1462 26.8506L19.147 26.8505L19.1445 26.86C25.132 26.7441 30.5329 22.8075 32.1267 16.8594C32.6249 15.0001 32.7001 13.1284 32.4111 11.3396C31.619 6.07236 27.7297 1.78859 22.6077 0.309326Z" fill="#10F2C5"/>
</svg>
